<?xml version="1.0" encoding="UTF-8" standalone="no"?>
<svg
   version="1.1"
   width="238"
   height="238"
   id="svg10"
   sodipodi:docname="clocksIcon.svg"
   inkscape:version="1.1.1 (3bf5ae0d25, 2021-09-20)"
   xmlns:inkscape="http://www.inkscape.org/namespaces/inkscape"
   xmlns:sodipodi="http://sodipodi.sourceforge.net/DTD/sodipodi-0.dtd"
   xmlns="http://www.w3.org/2000/svg"
   xmlns:svg="http://www.w3.org/2000/svg">
  <defs
     id="defs14" />
  <sodipodi:namedview
     id="namedview12"
     pagecolor="#ffffff"
     bordercolor="#666666"
     borderopacity="1.0"
     inkscape:pageshadow="2"
     inkscape:pageopacity="0.0"
     inkscape:pagecheckerboard="0"
     showgrid="false"
     inkscape:zoom="3.6680672"
     inkscape:cx="119"
     inkscape:cy="119"
     inkscape:window-width="3440"
     inkscape:window-height="1369"
     inkscape:window-x="-8"
     inkscape:window-y="-8"
     inkscape:window-maximized="1"
     inkscape:current-layer="svg10" />
  <ellipse
     style="fill:#000000;fill-rule:evenodd;stroke:#000000;stroke-width:0;stroke-linecap:square;stroke-linejoin:round;paint-order:stroke markers fill"
     id="path936"
     cx="119.15012"
     cy="118.46234"
     rx="111.2398"
     ry="110.14931" />
  <path
     d="M0 0 C18.76917083 16.76508822 31.13164422 41.69433349 33.37036133 66.78662109 C33.4741274 68.95240536 33.55661629 71.11928968 33.62036133 73.28662109 C33.71510742 75.11580078 33.71510742 75.11580078 33.81176758 76.98193359 C34.36178272 94.83081197 29.65397454 110.47449231 21.62036133 126.28662109 C21.07508789 127.37587891 20.52981445 128.46513672 19.96801758 129.58740234 C7.36168329 152.85826392 -15.12939087 169.49444738 -40.03393555 177.60253906 C-67.48919262 185.60936986 -96.59222607 181.68961955 -121.50463867 168.16162109 C-144.60154661 155.04158421 -162.20582282 132.1383727 -169.75854492 106.66552734 C-170.06598633 105.48796875 -170.06598633 105.48796875 -170.37963867 104.28662109 C-170.65678711 103.28501953 -170.93393555 102.28341797 -171.21948242 101.25146484 C-177.74632728 74.0913685 -172.42226394 46.1308103 -158.37963867 22.28662109 C-155.59950804 18.08432772 -152.60091773 14.15877503 -149.37963867 10.28662109 C-148.28135742 8.96017578 -148.28135742 8.96017578 -147.16088867 7.60693359 C-130.79606733 -11.35090521 -106.50462229 -24.31395279 -81.46850586 -26.56835938 C-50.5258285 -28.71655367 -23.56190973 -20.25441768 0 0 Z M-112.37963867 -7.71337891 C-111.38394762 -4.55238591 -110.52276042 -1.93071192 -108.69213867 0.84912109 C-107.37963867 3.28662109 -107.37963867 3.28662109 -107.69213867 6.09912109 C-107.91901367 6.82099609 -108.14588867 7.54287109 -108.37963867 8.28662109 C-110.19213867 8.97412109 -110.19213867 8.97412109 -112.37963867 9.28662109 C-114.84729575 7.23899075 -116.41487044 4.82313088 -118.06713867 2.09912109 C-118.50413086 1.38369141 -118.94112305 0.66826172 -119.39135742 -0.06884766 C-119.71749023 -0.61154297 -120.04362305 -1.15423828 -120.37963867 -1.71337891 C-125.14410668 -0.19089853 -128.40343246 2.44947967 -132.12963867 5.66162109 C-132.74073486 6.18747803 -133.35183105 6.71333496 -133.98144531 7.25512695 C-139.57472109 12.21392402 -144.74327198 17.70407628 -148.37963867 24.28662109 C-147.71640769 27.39690741 -147.71640769 27.39690741 -145.34838867 28.42724609 C-144.53370117 28.79333984 -143.71901367 29.15943359 -142.87963867 29.53662109 C-140.41479492 30.81396484 -140.41479492 30.81396484 -138.37963867 32.28662109 C-137.31713867 36.09912109 -137.31713867 36.09912109 -137.37963867 39.28662109 C-142.69816228 39.95143655 -145.36681378 38.34898197 -149.54760742 35.38037109 C-151.45333469 34.03031613 -151.45333469 34.03031613 -154.37963867 34.28662109 C-159.66421343 46.6514999 -164.21451378 58.58848498 -163.37963867 72.28662109 C-162.00678711 72.36009766 -162.00678711 72.36009766 -160.60620117 72.43505859 C-159.41768555 72.50982422 -158.22916992 72.58458984 -157.00463867 72.66162109 C-155.22959961 72.76603516 -155.22959961 72.76603516 -153.41870117 72.87255859 C-150.37963867 73.28662109 -150.37963867 73.28662109 -148.37963867 75.28662109 C-148.62963867 77.84912109 -148.62963867 77.84912109 -149.37963867 80.28662109 C-152.08146923 81.63753637 -154.49772073 81.62520167 -157.50463867 81.84912109 C-158.6003418 81.93291016 -159.69604492 82.01669922 -160.82495117 82.10302734 C-161.66799805 82.16361328 -162.51104492 82.22419922 -163.37963867 82.28662109 C-163.14396194 95.80589543 -159.86532087 107.98393617 -154.37963867 120.28662109 C-151.32240993 119.7974645 -149.70347985 118.86089146 -147.00463867 117.16162109 C-144.13281577 115.43728683 -143.49165487 115.27847446 -139.94213867 115.53662109 C-139.09651367 115.78412109 -138.25088867 116.03162109 -137.37963867 116.28662109 C-137.03588867 118.54833984 -137.03588867 118.54833984 -137.37963867 121.28662109 C-139.78588867 123.30615234 -139.78588867 123.30615234 -142.87963867 125.09912109 C-143.90057617 125.70369141 -144.92151367 126.30826172 -145.97338867 126.93115234 C-146.76745117 127.37845703 -147.56151367 127.82576172 -148.37963867 128.28662109 C-146.94591785 132.81154346 -144.4118168 135.79237885 -141.19213867 139.16162109 C-140.45120972 139.95052734 -140.45120972 139.95052734 -139.6953125 140.75537109 C-138.26424289 142.27312264 -136.82308094 143.78064703 -135.37963867 145.28662109 C-134.35483398 146.37330078 -134.35483398 146.37330078 -133.30932617 147.48193359 C-129.93897281 150.97319649 -126.6563347 153.9538778 -122.37963867 156.28662109 C-118.55909943 155.01310801 -118.14942492 153.66024584 -116.19213867 150.22412109 C-115.66233398 149.30501953 -115.1325293 148.38591797 -114.58666992 147.43896484 C-114.18834961 146.72869141 -113.7900293 146.01841797 -113.37963867 145.28662109 C-111.72963867 145.61662109 -110.07963867 145.94662109 -108.37963867 146.28662109 C-107.50287841 149.2529058 -107.16515175 150.7726936 -108.37573242 153.67333984 C-108.85139648 154.43259766 -109.32706055 155.19185547 -109.81713867 155.97412109 C-111.80660876 158.92359802 -111.80660876 158.92359802 -112.37963867 162.28662109 C-99.92393187 168.05695603 -88.32795001 172.04133934 -74.37963867 171.28662109 C-74.31905273 170.35978516 -74.2584668 169.43294922 -74.19604492 168.47802734 C-74.07036133 166.68171875 -74.07036133 166.68171875 -73.94213867 164.84912109 C-73.82032227 163.05667969 -73.82032227 163.05667969 -73.69604492 161.22802734 C-73.37963867 158.28662109 -73.37963867 158.28662109 -72.37963867 157.28662109 C-69.87963867 157.16162109 -69.87963867 157.16162109 -67.37963867 157.28662109 C-65.50138976 159.16487001 -65.9886147 162.32597385 -65.81713867 164.84912109 C-65.73334961 166.04666016 -65.64956055 167.24419922 -65.56323242 168.47802734 C-65.50264648 169.40486328 -65.44206055 170.33169922 -65.37963867 171.28662109 C-52.4943025 172.88251135 -38.98417881 167.50866416 -27.37963867 162.28662109 C-28.33590918 159.12357247 -29.2418466 156.49586091 -31.06713867 153.72412109 C-32.37963867 151.28662109 -32.37963867 151.28662109 -32.06713867 148.47412109 C-31.72682617 147.39130859 -31.72682617 147.39130859 -31.37963867 146.28662109 C-29.72963867 145.95662109 -28.07963867 145.62662109 -26.37963867 145.28662109 C-24.06963867 148.91662109 -21.75963867 152.54662109 -19.37963867 156.28662109 C-14.78786427 154.44991133 -12.1060667 152.57966216 -8.62963867 149.28662109 C-8.11030762 148.80112793 -7.59097656 148.31563477 -7.0559082 147.81542969 C2.28743551 139.13140031 2.28743551 139.13140031 8.62036133 128.28662109 C3.17536133 124.82162109 3.17536133 124.82162109 -2.37963867 121.28662109 C-2.04963867 119.30662109 -1.71963867 117.32662109 -1.37963867 115.28662109 C4.39415058 115.7677702 8.57895968 117.4712929 13.62036133 120.28662109 C20.42988 108.17460838 23.20140054 96.07043094 23.62036133 82.28662109 C22.24750977 82.21314453 22.24750977 82.21314453 20.84692383 82.13818359 C19.6584082 82.06341797 18.46989258 81.98865234 17.24536133 81.91162109 C16.06200195 81.84201172 14.87864258 81.77240234 13.65942383 81.70068359 C10.62036133 81.28662109 10.62036133 81.28662109 8.62036133 79.28662109 C9.17591688 74.73106554 9.17591688 74.73106554 10.62036133 73.28662109 C12.80328907 73.05180417 14.99239307 72.87298787 17.18286133 72.72412109 C18.38040039 72.64033203 19.57793945 72.55654297 20.81176758 72.47021484 C21.73860352 72.40962891 22.66543945 72.34904297 23.62036133 72.28662109 C24.59789948 58.84547146 20.27933957 45.80665345 13.62036133 34.28662109 C12.95649414 34.64755859 12.29262695 35.00849609 11.60864258 35.38037109 C10.72563477 35.84443359 9.84262695 36.30849609 8.93286133 36.78662109 C8.06274414 37.25068359 7.19262695 37.71474609 6.29614258 38.19287109 C3.50247303 39.33480901 1.6040702 39.50166317 -1.37963867 39.28662109 C-2.12963867 37.03662109 -2.12963867 37.03662109 -2.37963867 34.28662109 C0.42461448 30.43077301 4.50046817 28.5050251 8.62036133 26.28662109 C7.19436415 21.84658441 4.77432572 18.86622737 1.62036133 15.53662109 C1.13486816 15.01729004 0.649375 14.49795898 0.14916992 13.96289062 C-8.45305419 4.47038545 -8.45305419 4.47038545 -19.37963867 -1.71337891 C-19.75475586 -1.00310547 -20.12987305 -0.29283203 -20.51635742 0.43896484 C-21.02811523 1.35806641 -21.53987305 2.27716797 -22.06713867 3.22412109 C-22.56600586 4.14064453 -23.06487305 5.05716797 -23.57885742 6.00146484 C-25.37963867 8.28662109 -25.37963867 8.28662109 -27.96166992 9.22802734 C-29.15856445 9.25703125 -29.15856445 9.25703125 -30.37963867 9.28662109 C-31.36963867 8.29662109 -31.36963867 8.29662109 -32.37963867 7.28662109 C-32.13557549 2.03926259 -29.9982946 -1.32079478 -27.37963867 -5.71337891 C-27.37963867 -6.37337891 -27.37963867 -7.03337891 -27.37963867 -7.71337891 C-39.83534547 -13.48371384 -51.43132733 -17.46809716 -65.37963867 -16.71337891 C-65.44022461 -15.78654297 -65.50081055 -14.85970703 -65.56323242 -13.90478516 C-65.68891602 -12.10847656 -65.68891602 -12.10847656 -65.81713867 -10.27587891 C-65.93895508 -8.4834375 -65.93895508 -8.4834375 -66.06323242 -6.65478516 C-66.37963867 -3.71337891 -66.37963867 -3.71337891 -67.37963867 -2.71337891 C-69.87963867 -2.58837891 -69.87963867 -2.58837891 -72.37963867 -2.71337891 C-74.25788759 -4.59162782 -73.77066265 -7.75273166 -73.94213867 -10.27587891 C-74.02592773 -11.47341797 -74.1097168 -12.67095703 -74.19604492 -13.90478516 C-74.25663086 -14.83162109 -74.3172168 -15.75845703 -74.37963867 -16.71337891 C-88.20786229 -16.98933015 -100.044043 -13.66915869 -112.37963867 -7.71337891 Z "
     fill="#080808"
     transform="translate(189.379638671875,40.71337890625)"
     id="path6"
     style="fill:#ffffff" />
  <path
     d="M0 0 C4.20441031 0.07217872 7.08394369 0.57325328 10.24609375 3.640625 C11.58160339 5.81266266 11.65334576 7.46911156 11.875 10 C12.96224044 17.26621086 18.90554854 20.80203201 24.41455078 24.94433594 C27.02047847 26.90867042 29.57346865 28.93748914 32.13183594 30.96313477 C33.91743055 32.37233574 35.71359726 33.76700074 37.51171875 35.16015625 C40.3125 37.375 40.3125 37.375 42.3125 39.375 C41.98278521 42.67214793 41.6898161 43.9976839 39.3125 46.375 C33.96418816 46.38474192 30.47196311 42.58553387 26.625 39.3125 C25.20072117 38.12736336 23.77624216 36.94246726 22.3515625 35.7578125 C21.66223633 35.1793457 20.97291016 34.60087891 20.26269531 34.00488281 C17.70167002 31.86449663 15.10704104 29.77159476 12.5 27.6875 C11.75105469 27.08550781 11.00210938 26.48351562 10.23046875 25.86328125 C8.64261788 24.63116071 6.98477442 23.48984962 5.3125 22.375 C5.31694122 23.17235565 5.32138245 23.9697113 5.32595825 24.79122925 C5.36598833 32.29583278 5.39646056 39.80038473 5.41612434 47.30506706 C5.42657343 51.16354797 5.440753 55.02194085 5.46337891 58.88037109 C5.4850674 62.60212192 5.49706014 66.32378794 5.50225449 70.04559708 C5.50595745 71.46741191 5.51318819 72.88922197 5.52396011 74.31100082 C5.53842119 76.29827114 5.53931646 78.28562631 5.53955078 80.27294922 C5.543992 81.40546112 5.54843323 82.53797302 5.55300903 83.70480347 C5.3125 86.375 5.3125 86.375 3.3125 88.375 C0.8125 88.6875 0.8125 88.6875 -1.6875 88.375 C-4.01174644 84.88863034 -3.93370021 83.53762916 -3.92700195 79.42236328 C-3.93073318 78.19744171 -3.93446442 76.97252014 -3.93830872 75.71047974 C-3.93485412 74.72939428 -3.93485412 74.72939428 -3.93132973 73.72848892 C-3.92573065 71.67677166 -3.93490434 69.62561853 -3.9485321 67.57394409 C-3.98563475 61.74149074 -4.00420772 55.90922824 -3.99291992 50.07666016 C-3.98705866 46.50674021 -4.0053776 42.93761331 -4.03880882 39.36785507 C-4.04674873 38.00995984 -4.04550475 36.65197785 -4.03478432 35.29410172 C-3.69754634 28.11900892 -3.69754634 28.11900892 -5.80770874 21.4730835 C-7.26706391 19.9497482 -7.26706391 19.9497482 -9.6875 18.375 C-11.54348295 14.66303409 -11.27842637 10.41617386 -10.6875 6.375 C-8.25 3.3125 -8.25 3.3125 -5.6875 1.375 C-4.05531064 -0.25718936 -2.24806873 0.08736889 0 0 Z "
     fill="#040404"
     transform="translate(118.6875,98.625)"
     id="path8"
     style="fill:#ffffff" />
</svg>
