<?xml version="1.0" encoding="UTF-8" standalone="no"?>
<svg
   version="1.0"
   width="224.000000pt"
   height="224.000000pt"
   viewBox="0 0 224.000000 224.000000"
   preserveAspectRatio="xMidYMid meet"
   id="svg34"
   sodipodi:docname="passortLogo_white.svg"
   inkscape:version="1.1.1 (3bf5ae0d25, 2021-09-20)"
   xmlns:inkscape="http://www.inkscape.org/namespaces/inkscape"
   xmlns:sodipodi="http://sodipodi.sourceforge.net/DTD/sodipodi-0.dtd"
   xmlns="http://www.w3.org/2000/svg"
   xmlns:svg="http://www.w3.org/2000/svg">
  <defs
     id="defs38" />
  <sodipodi:namedview
     id="namedview36"
     pagecolor="#ffffff"
     bordercolor="#666666"
     borderopacity="1.0"
     inkscape:pageshadow="2"
     inkscape:pageopacity="0.0"
     inkscape:pagecheckerboard="0"
     inkscape:document-units="pt"
     showgrid="false"
     inkscape:zoom="2.9229911"
     inkscape:cx="146.59641"
     inkscape:cy="149.33333"
     inkscape:window-width="3440"
     inkscape:window-height="1369"
     inkscape:window-x="-8"
     inkscape:window-y="-8"
     inkscape:window-maximized="1"
     inkscape:current-layer="svg34" />
  <g
     transform="translate(0.000000,224.000000) scale(0.100000,-0.100000)"
     fill="#000000"
     stroke="none"
     id="g32"
     style="fill:#ff8000;fill-opacity:1">
    <path
       d="M1020 1986 c-228 -62 -422 -115 -430 -118 -8 -4 201 -6 465 -5 l480 2 0 98 c0 92 -2 100 -24 118 -13 10 -35 19 -50 18 -14 0 -213 -51 -441 -113z"
       id="path2"
       style="fill:#ff8000;fill-opacity:1" />
    <path
       d="M450 1015 l0 -795 40 0 40 0 0 795 0 795 -40 0 -40 0 0 -795z"
       id="path4"
       style="fill:#ff8000;fill-opacity:1" />
    <path
       d="M590 1015 l0 -795 560 0 c612 0 605 -1 629 57 8 21 11 220 9 750 l-3 723 -28 27 -27 28 -570 3 -570 2 0 -795z m651 665 c237 -45 373 -302 275 -517 -35 -76 -113 -154 -189 -189 -54 -25 -74 -29 -152 -29 -77 0 -98 4 -147 27 -168 79 -258 257 -214 428 29 111 95 194 197 246 81 40 145 50 230 34z m129 -865 c7 -8 10 -22 6 -30 -4 -13 -36 -15 -201 -15 -165 0 -197 2 -201 15 -4 8 -1 22 6 30 10 12 46 15 195 15 149 0 185 -3 195 -15z m75 -129 c11 -8 16 -20 12 -30 -6 -14 -35 -16 -282 -16 -247 0 -276 2 -282 16 -14 38 18 43 282 43 193 0 256 -3 270 -13z m-239 -131 l138 -35 61 20 c57 19 64 19 98 5 20 -8 58 -15 85 -15 27 0 64 -3 81 -6 l31 -6 0 -79 0 -78 -32 5 c-133 24 -363 87 -385 105 -9 9 -13 8 -13 0 0 -7 19 -20 43 -31 37 -16 76 -28 272 -84 l50 -14 -56 -1 c-84 -2 -283 62 -328 104 l-24 23 34 21 34 21 -41 0 c-57 0 -191 -37 -241 -66 -45 -26 -63 -50 -63 -83 0 -19 -6 -21 -55 -21 -30 0 -55 4 -55 9 0 19 67 75 118 99 73 33 59 38 -23 8 -67 -24 -175 -90 -175 -107 0 -5 -16 -9 -35 -9 l-35 0 0 68 0 67 85 43 c76 38 90 42 137 37 38 -4 67 0 103 14 28 10 51 19 52 20 1 0 64 -15 139 -34z m-36 -85 c0 -5 -7 -10 -16 -10 -8 0 -12 5 -9 10 3 6 10 10 16 10 5 0 9 -4 9 -10z m-2 -47 c2 -8 -5 -13 -17 -13 -21 0 -35 13 -24 24 10 10 36 3 41 -11z m38 -60 c17 -17 16 -18 -16 -21 -37 -4 -61 18 -32 30 26 10 29 9 48 -9z"
       id="path6"
       style="fill:#ff8000;fill-opacity:1" />
    <path
       d="M1132 1595 c-11 -13 -25 -38 -32 -56 -17 -40 -5 -49 75 -49 80 0 92 9 75 49 -20 50 -49 81 -75 81 -13 0 -32 -11 -43 -25z"
       id="path8"
       style="fill:#ff8000;fill-opacity:1" />
    <path
       d="M1045 1598 c-65 -35 -68 -39 -48 -53 28 -22 37 -18 55 25 9 22 16 40 15 40 -1 0 -11 -6 -22 -12z"
       id="path10"
       style="fill:#ff8000;fill-opacity:1" />
    <path
       d="M1300 1570 c22 -44 26 -46 53 -26 20 15 14 22 -41 50 l-33 17 21 -41z"
       id="path12"
       style="fill:#ff8000;fill-opacity:1" />
    <path
       d="M912 1483 c-20 -30 -37 -71 -46 -115 l-6 -28 69 0 68 0 7 38 c12 74 8 89 -28 111 -42 26 -41 26 -64 -6z"
       id="path14"
       style="fill:#ff8000;fill-opacity:1" />
    <path
       d="M1373 1488 c-35 -21 -37 -28 -27 -102 l7 -46 69 0 68 0 -6 28 c-13 62 -55 143 -72 141 -4 0 -22 -10 -39 -21z"
       id="path16"
       style="fill:#ff8000;fill-opacity:1" />
    <path
       d="M1070 1425 c0 -5 -3 -27 -6 -47 l-7 -38 117 0 c128 0 124 -2 110 66 l-5 29 -105 0 c-63 0 -104 -4 -104 -10z"
       id="path18"
       style="fill:#ff8000;fill-opacity:1" />
    <path
       d="M872 1238 c5 -24 20 -62 34 -86 24 -41 27 -42 47 -29 12 8 31 20 43 27 18 11 20 18 13 59 -4 25 -8 52 -8 59 -1 8 -22 12 -70 12 l-69 0 10 -42z"
       id="path20"
       style="fill:#ff8000;fill-opacity:1" />
    <path
       d="M1064 1249 c3 -17 6 -39 6 -49 0 -15 6 -16 52 -9 29 5 76 5 104 0 l52 -8 6 36 c10 64 16 61 -110 61 l-116 0 6 -31z"
       id="path22"
       style="fill:#ff8000;fill-opacity:1" />
    <path
       d="M1345 1226 c-8 -63 -7 -67 40 -95 l35 -20 24 42 c13 23 27 52 30 65 3 12 9 31 12 42 5 19 1 20 -65 20 l-70 0 -6 -54z"
       id="path24"
       style="fill:#ff8000;fill-opacity:1" />
    <path
       d="M1118 1133 c-16 -2 -28 -10 -28 -16 0 -21 44 -89 66 -104 19 -12 25 -11 52 12 27 23 61 90 50 100 -7 7 -112 13 -140 8z"
       id="path26"
       style="fill:#ff8000;fill-opacity:1" />
    <path
       d="M1001 1084 l-24 -17 39 -23 c22 -13 42 -24 46 -24 3 0 -3 18 -13 40 -11 22 -21 40 -22 40 -1 0 -13 -7 -26 -16z"
       id="path28"
       style="fill:#ff8000;fill-opacity:1" />
    <path
       d="M1305 1064 c-8 -20 -15 -38 -15 -40 0 -3 18 5 40 16 42 21 44 32 10 50 -17 9 -22 5 -35 -26z"
       id="path30"
       style="fill:#ff8000;fill-opacity:1" />
  </g>
</svg>
