<?xml version="1.0" standalone="no"?>
<!DOCTYPE svg PUBLIC "-//W3C//DTD SVG 20010904//EN"
 "http://www.w3.org/TR/2001/REC-SVG-20010904/DTD/svg10.dtd">
<svg version="1.0" xmlns="http://www.w3.org/2000/svg"
 width="782.000000pt" height="782.000000pt" viewBox="0 0 782.000000 782.000000"
 preserveAspectRatio="xMidYMid meet">

<g transform="translate(0.000000,782.000000) scale(0.100000,-0.100000)"
fill="#000000" stroke="none">
<path d="M3640 7609 c-321 -27 -721 -117 -1029 -230 -177 -65 -482 -216 -644
-317 -396 -249 -722 -547 -994 -909 -156 -208 -258 -373 -368 -598 -143 -289
-227 -536 -304 -892 -108 -499 -108 -987 0 -1486 77 -356 161 -603 304 -892
258 -525 620 -964 1082 -1312 208 -156 373 -258 598 -368 289 -143 536 -227
892 -304 499 -108 987 -108 1486 0 356 77 603 161 892 304 525 258 964 620
1312 1082 156 208 258 373 368 598 143 289 227 536 304 892 108 499 108 987 0
1486 -77 356 -161 603 -304 892 -258 525 -620 964 -1082 1312 -208 156 -373
258 -598 368 -289 143 -536 227 -892 304 -333 72 -704 97 -1023 70z m545 -239
c839 -71 1595 -419 2180 -1005 1352 -1351 1352 -3539 0 -4890 -964 -965 -2402
-1273 -3675 -788 -1785 680 -2682 2681 -2003 4463 475 1247 1616 2104 2953
2219 138 12 407 12 545 1z"/>
<path d="M3660 6789 c-1118 -99 -2093 -862 -2461 -1927 -429 -1244 37 -2618
1134 -3343 1142 -756 2653 -603 3622 366 969 969 1122 2480 366 3622 -583 882
-1607 1375 -2661 1282z m580 -255 c222 -23 467 -80 595 -139 28 -13 95 -42
150 -65 55 -23 123 -54 150 -67 69 -35 301 -181 350 -220 22 -18 72 -57 110
-87 74 -58 294 -279 384 -387 66 -79 205 -289 265 -401 24 -46 63 -128 85
-183 23 -55 46 -108 51 -117 38 -68 101 -287 129 -448 71 -411 54 -852 -49
-1220 -30 -104 -61 -194 -80 -228 -5 -9 -28 -62 -51 -117 -22 -55 -61 -137
-85 -183 -60 -112 -199 -322 -265 -401 -90 -108 -310 -329 -384 -387 -38 -30
-88 -69 -110 -87 -49 -39 -281 -185 -350 -220 -27 -13 -95 -44 -150 -67 -55
-23 -123 -53 -150 -65 -197 -91 -580 -157 -915 -157 -335 0 -718 66 -915 157
-27 12 -95 42 -150 65 -55 23 -122 54 -150 67 -69 35 -301 181 -350 220 -22
18 -71 57 -110 87 -74 58 -294 279 -384 387 -66 79 -205 289 -265 401 -24 46
-63 128 -85 183 -23 55 -46 108 -51 117 -19 34 -50 124 -80 228 -123 440 -123
1000 0 1440 30 104 61 194 80 228 5 9 28 62 51 117 22 55 61 137 85 183 60
112 199 322 265 401 90 108 310 329 384 387 39 30 88 69 110 87 49 39 281 185
350 220 28 13 95 44 150 67 55 23 123 52 150 65 128 59 373 116 600 140 254
26 371 26 635 -1z"/>
<path d="M3338 6135 c-104 -29 -165 -59 -239 -116 -62 -49 -77 -65 -129 -134
-56 -76 -78 -124 -105 -237 -30 -125 -31 -171 -5 -291 27 -119 62 -194 138
-289 l62 -78 -37 -37 c-99 -99 -148 -221 -148 -368 0 -49 6 -139 12 -200 7
-60 17 -153 23 -205 5 -52 16 -158 25 -235 18 -169 30 -283 45 -430 15 -161
45 -283 84 -348 l34 -56 -39 -6 c-55 -9 -152 -76 -193 -132 -20 -26 -45 -77
-56 -112 -65 -205 34 -407 237 -484 57 -22 70 -22 603 -25 467 -2 555 -1 616
13 71 16 145 54 195 102 l27 25 27 -74 c15 -40 43 -116 62 -168 53 -143 73
-179 138 -246 71 -73 114 -96 230 -125 78 -20 94 -21 153 -10 137 24 253 94
320 191 40 58 56 98 77 191 16 75 16 76 -10 188 -14 61 -32 131 -39 154 -8 23
-38 125 -66 227 -131 471 -232 816 -249 849 -57 110 -157 199 -263 233 l-67
21 28 41 c80 116 92 311 28 441 -21 43 -79 119 -112 147 -43 37 -134 77 -207
92 -51 11 -130 16 -232 16 l-154 0 -13 53 c-24 100 -67 176 -142 249 l-40 39
30 32 c43 45 108 144 127 192 30 78 56 204 56 272 0 75 -35 222 -69 293 -59
123 -181 244 -307 304 -75 36 -214 66 -297 65 -43 0 -108 -10 -159 -24z m277
-196 c159 -43 291 -175 334 -334 17 -63 13 -176 -8 -244 -109 -350 -561 -435
-791 -149 -202 251 -82 622 235 724 50 16 177 18 230 3z m122 -1064 c134 -40
203 -142 219 -325 10 -110 -24 -98 287 -102 303 -4 314 -6 381 -72 47 -48 66
-95 66 -166 0 -95 -44 -170 -124 -213 -38 -21 -56 -22 -284 -25 -206 -3 -244
-6 -249 -18 -3 -9 0 -62 7 -120 l13 -104 337 0 c404 0 414 -2 500 -88 45 -46
60 -69 74 -117 10 -33 21 -71 26 -85 10 -31 13 -41 115 -405 109 -387 106
-376 116 -405 9 -28 43 -155 65 -244 60 -245 -244 -417 -422 -239 -28 27 -84
128 -84 149 0 9 -290 797 -299 814 -7 13 -81 16 -537 20 -527 5 -529 5 -576
28 -56 28 -113 88 -140 149 -19 43 -27 97 -58 403 -5 52 -17 158 -25 235 -9
77 -20 185 -26 240 -5 55 -14 138 -20 185 -5 47 -12 128 -15 181 -7 93 -6 97
25 162 37 78 99 137 168 160 67 22 387 24 460 2z m495 -1965 c78 -22 128 -89
128 -172 0 -77 -38 -131 -112 -163 -56 -23 -1080 -23 -1136 0 -75 32 -112 86
-112 165 0 56 15 93 53 128 53 50 65 51 622 52 328 0 534 -4 557 -10z"/>
</g>
</svg>
