<?xml version="1.0" encoding="UTF-8" standalone="no"?>
<!-- Created with Inkscape (http://www.inkscape.org/) -->

<svg
   width="695mm"
   height="283mm"
   viewBox="0 0 695 283"
   version="1.1"
   id="svg5"
   inkscape:version="1.1.1 (3bf5ae0d25, 2021-09-20)"
   sodipodi:docname="landingBayLines.svg"
   xmlns:inkscape="http://www.inkscape.org/namespaces/inkscape"
   xmlns:sodipodi="http://sodipodi.sourceforge.net/DTD/sodipodi-0.dtd"
   xmlns="http://www.w3.org/2000/svg"
   xmlns:svg="http://www.w3.org/2000/svg">
  <sodipodi:namedview
     id="namedview7"
     pagecolor="#ffffff"
     bordercolor="#666666"
     borderopacity="1.0"
     inkscape:pageshadow="2"
     inkscape:pageopacity="0.0"
     inkscape:pagecheckerboard="0"
     inkscape:document-units="mm"
     showgrid="false"
     inkscape:zoom="1.0998546"
     inkscape:cx="764.19192"
     inkscape:cy="512.34045"
     inkscape:window-width="3440"
     inkscape:window-height="1369"
     inkscape:window-x="-8"
     inkscape:window-y="-8"
     inkscape:window-maximized="1"
     inkscape:current-layer="layer1" />
  <defs
     id="defs2" />
  <g
     inkscape:label="Layer 1"
     inkscape:groupmode="layer"
     id="layer1">
    <rect
       style="fill:#ffff00;stroke:#000000;stroke-width:0;stroke-linecap:square;stroke-linejoin:round;paint-order:stroke markers fill"
       id="rect1478"
       width="207.48082"
       height="2.0412371"
       x="-244.90347"
       y="160.7948"
       transform="rotate(-90)" />
    <rect
       style="fill:#ffff00;stroke:#000000;stroke-width:0;stroke-linecap:square;stroke-linejoin:round;paint-order:stroke markers fill"
       id="rect1482"
       width="143.82126"
       height="2.0412371"
       x="552.23376"
       y="112.20624" />
    <rect
       style="fill:#ffff00;stroke:#000000;stroke-width:0;stroke-linecap:square;stroke-linejoin:round;paint-order:stroke markers fill"
       id="rect1802"
       width="126.13054"
       height="2.0412371"
       x="36.481182"
       y="142.14438" />
    <rect
       style="fill:#f05b00;stroke:#000000;stroke-width:0;stroke-linecap:square;stroke-linejoin:round;paint-order:stroke markers fill;fill-opacity:1"
       id="rect938"
       width="514.646"
       height="2.0412371"
       x="36.147842"
       y="37.42268" />
    <rect
       style="fill:#f05b00;stroke:#000000;stroke-width:0;stroke-linecap:square;stroke-linejoin:round;paint-order:stroke markers fill;fill-opacity:1"
       id="rect938-8"
       width="207.48082"
       height="2.0412371"
       x="-244.90347"
       y="550.79388"
       transform="rotate(-90)" />
    <rect
       style="fill:#f05b00;stroke:#000000;stroke-width:0;stroke-linecap:square;stroke-linejoin:round;paint-order:stroke markers fill;fill-opacity:1"
       id="rect1020"
       width="514.32666"
       height="2.0412371"
       x="36.448452"
       y="242.90721" />
    <rect
       style="fill:#f05b00;stroke:#000000;stroke-width:0;stroke-linecap:square;stroke-linejoin:round;paint-order:stroke markers fill;fill-opacity:1"
       id="rect1476"
       width="207.48082"
       height="2.0412371"
       x="-244.90347"
       y="319.01532"
       transform="rotate(-90)" />
    <rect
       style="fill:#f05b00;stroke:#000000;stroke-width:0;stroke-linecap:square;stroke-linejoin:round;paint-order:stroke markers fill;fill-opacity:1"
       id="rect1480"
       width="207.48082"
       height="2.0412371"
       x="-244.90347"
       y="35.382668"
       transform="rotate(-90)" />
    <g
       id="g8648"
       style="fill:#00a726;fill-opacity:1">
      <g
         id="g2070"
         style="fill:#00a726;fill-opacity:1">
        <path
           id="path1826"
           style="fill:#00a726;fill-rule:evenodd;stroke:#000000;stroke-width:0;stroke-linecap:square;stroke-linejoin:round;paint-order:stroke markers fill;fill-opacity:1"
           transform="scale(0.26458333)"
           d="M 915.50195,289.30859 A 249.44882,249.44882 0 0 0 666.05469,538.75781 249.44882,249.44882 0 0 0 915.50195,788.20703 249.44882,249.44882 0 0 0 1164.9512,538.75781 249.44882,249.44882 0 0 0 915.50195,289.30859 Z m 0,12.85938 A 236.59063,236.59063 0 0 1 1152.0938,538.75781 236.59063,236.59063 0 0 1 915.50195,775.34961 236.59063,236.59063 0 0 1 678.91211,538.75781 236.59063,236.59063 0 0 1 915.50195,302.16797 Z" />
      </g>
      <g
         aria-label="H"
         id="text4542"
         style="font-size:84.6664px;line-height:1.25;font-family:Arial;-inkscape-font-specification:'Arial, Normal';stroke-width:2.11666;fill:#00a726;fill-opacity:1"
         transform="rotate(45,241.18204,138.22625)">
        <path
           d="m 217.41095,168.52922 v -60.60593 h 8.02016 v 24.88729 h 31.50185 v -24.88729 h 8.02016 v 60.60593 h -8.02016 v -28.56665 h -31.50185 v 28.56665 z"
           id="path8074"
           style="fill:#00a726;fill-opacity:1" />
      </g>
    </g>
    <g
       id="g8775"
       transform="matrix(0.55927735,0,0,0.55927735,466.18269,96.333595)"
       style="fill:#00a726;fill-opacity:1">
      <g
         id="g8769"
         style="fill:#00a726;fill-opacity:1">
        <path
           id="path8767"
           style="fill:#00a726;fill-rule:evenodd;stroke:#000000;stroke-width:0;stroke-linecap:square;stroke-linejoin:round;paint-order:stroke markers fill;fill-opacity:1"
           transform="scale(0.26458333)"
           d="M 915.50195,289.30859 A 249.44882,249.44882 0 0 0 666.05469,538.75781 249.44882,249.44882 0 0 0 915.50195,788.20703 249.44882,249.44882 0 0 0 1164.9512,538.75781 249.44882,249.44882 0 0 0 915.50195,289.30859 Z m 0,12.85938 A 236.59063,236.59063 0 0 1 1152.0938,538.75781 236.59063,236.59063 0 0 1 915.50195,775.34961 236.59063,236.59063 0 0 1 678.91211,538.75781 236.59063,236.59063 0 0 1 915.50195,302.16797 Z" />
      </g>
      <g
         aria-label="H"
         id="g8773"
         style="font-size:84.6664px;line-height:1.25;font-family:Arial;-inkscape-font-specification:'Arial, Normal';fill:#00a726;stroke-width:2.11666;fill-opacity:1"
         transform="rotate(45,241.18204,138.22625)">
        <path
           d="m 217.41095,168.52922 v -60.60593 h 8.02016 v 24.88729 h 31.50185 v -24.88729 h 8.02016 v 60.60593 h -8.02016 v -28.56665 h -31.50185 v 28.56665 z"
           id="path8771"
           style="fill:#00a726;fill-opacity:1" />
      </g>
    </g>
    <g
       id="g14907"
       transform="matrix(0.40068214,0,0,0.40068214,75.408904,251.92259)"
       style="fill:#ffff00">
      <g
         aria-label="MAINTENANCE"
         id="text9989"
         style="font-size:10.5833px;line-height:1.25;font-family:Tivan;-inkscape-font-specification:'Tivan, Normal';stroke-width:0.264583;fill:#ffff00">
        <path
           d="m 12.813265,-33.680412 v -5.29165 h -1.586461 v -5.29165 h 3.172923 v 2.118727 h -1.059364 v -1.059363 H 12.281 v 3.17809 h 4.237454 v 2.113559 H 15.45909 v -1.059363 h -1.586461 v 4.237454 h 5.29165 v 1.054196 z"
           id="path14842"
           style="fill:#ffff00" />
        <path
           d="m 21.231329,-33.680412 v -1.054196 h 1.586461 v -9.529104 h 1.059364 v 10.5833 z m 4.232286,0 v -10.5833 h 1.059364 v 8.46974 l 0.527098,-0.532265 h 1.059363 z"
           id="path14844"
           style="fill:#ffff00" />
        <path
           d="m 30.176492,-33.680412 v -10.5833 h 4.232286 v 3.705188 h -1.059363 v -2.645824 h -2.118727 v 3.705188 h 5.291649 v 1.059363 h -5.291649 v 3.705189 h 2.118727 v -2.645825 h 1.059363 v 3.700021 z"
           id="path14846"
           style="fill:#ffff00" />
        <path
           d="m 44.413304,-34.734608 v -3.705189 h -3.172923 v 3.705189 z m -4.232287,1.054196 v -4.759385 h -1.586461 v -1.059363 h 1.586461 v -3.705188 h -1.586461 v -1.059364 h 2.645825 v 4.764552 h 3.172923 v -2.645825 h 3.172922 v 2.118727 h -1.054195 v -1.059363 h -1.059364 v 7.405209 z"
           id="path14848"
           style="fill:#ffff00" />
        <path
           d="m 49.658444,-33.680412 v -10.5833 h 6.345846 v 4.764552 h -1.054196 v -3.705188 h -1.591629 v 3.705188 h -1.054196 v -3.705188 H 50.71264 v 9.523936 z"
           id="path14850"
           style="fill:#ffff00" />
        <path
           d="m 62.308795,-34.734608 v -2.118727 h -3.178091 v 2.118727 z m 0,-3.178091 v -2.113559 h -3.178091 v 2.113559 z m 0,-3.172922 v -2.118727 h -3.178091 v 2.118727 z m -4.232286,7.405209 v -10.5833 h 5.291649 v 10.5833 z"
           id="path14852"
           style="fill:#ffff00" />
        <path
           d="m 71.253956,-34.734608 v -3.705189 h -3.172923 v 3.705189 z m -4.232286,1.054196 v -4.759385 h -1.586462 v -1.059363 h 1.586462 v -3.705188 h -1.586462 v -1.059364 h 2.645825 v 4.764552 h 3.172923 v -2.645825 h 3.172923 v 2.118727 h -1.054196 v -1.059363 H 72.31332 v 7.405209 z"
           id="path14854"
           style="fill:#ffff00" />
        <path
           d="m 76.499097,-33.680412 v -1.054196 h 1.586461 v -9.529104 h 1.059364 v 10.5833 z m 4.232286,0 v -10.5833 h 1.059364 v 8.46974 l 0.527098,-0.532265 h 1.059363 z"
           id="path14856"
           style="fill:#ffff00" />
        <path
           d="m 91.263005,-34.734608 v -3.705189 h -3.172923 v 3.705189 z m -4.232287,1.054196 v -4.759385 h -1.586461 v -1.059363 h 1.586461 v -3.705188 h -1.586461 v -1.059364 h 2.645825 v 4.764552 h 3.172923 v -2.645825 h 3.172922 v 2.118727 h -1.054195 v -1.059363 h -1.059364 v 7.405209 z"
           id="path14858"
           style="fill:#ffff00" />
        <path
           d="m 99.681068,-40.026258 v -1.059363 h -1.059363 z m -2.118727,6.345846 1.322913,-2.645825 h 0.795814 v -2.11356 l -0.527098,-1.059363 -1.059363,-1.059364 -1.059364,-0.527097 h -0.527098 v -1.059364 h 3.172923 v -1.059363 h -1.586461 v -1.059364 h 2.645823 v 8.996838 h -1.322911 l -0.795814,1.586462 z"
           id="path14860"
           style="fill:#ffff00" />
        <path
           d="m 107.03977,-34.734608 v -2.118727 h -3.17809 v 2.118727 z m 0,-3.178091 v -2.113559 h -3.17809 v 2.113559 z m 0,-3.172922 v -2.118727 h -3.17809 v 2.118727 z m -4.23229,7.405209 v -10.5833 h 5.29165 v 10.5833 z"
           id="path14862"
           style="fill:#ffff00" />
      </g>
      <g
         aria-label="MAINTENANCE"
         transform="scale(1.2270539,0.8149601)"
         id="text13273"
         style="font-weight:900;font-size:9.60483px;line-height:1.25;font-family:Arial;-inkscape-font-specification:'Arial, Heavy';stroke-width:0.240122;fill:#ffff00">
        <path
           d="m 9.2055431,-38.558705 h 2.7951559 l 1.078667,4.183354 1.073978,-4.183354 h 2.785775 v 6.875333 h -1.735247 v -5.243262 l -1.345989,5.243262 H 12.28678 l -1.341299,-5.243262 v 5.243262 H 9.2055431 Z"
           id="path14819"
           style="fill:#ffff00" />
        <path
           d="m 22.524741,-32.818318 h -2.419967 l -0.33298,1.134946 H 17.60039 l 2.584112,-6.875333 h 2.31679 l 2.584112,6.875333 h -2.222993 z m -0.445537,-1.486685 -0.759757,-2.471556 -0.755067,2.471556 z"
           id="path14821"
           style="fill:#ffff00" />
        <path
           d="m 25.849852,-38.558705 h 2.129195 v 6.875333 h -2.129195 z"
           id="path14823"
           style="fill:#ffff00" />
        <path
           d="m 29.51732,-38.558705 h 1.98381 l 2.588801,3.803475 v -3.803475 h 2.00257 v 6.875333 h -2.00257 l -2.574732,-3.775336 v 3.775336 H 29.51732 Z"
           id="path14825"
           style="fill:#ffff00" />
        <path
           d="m 37.021093,-38.558705 h 6.457935 v 1.697729 h -2.166715 v 5.177604 h -2.124505 v -5.177604 h -2.166715 z"
           id="path14827"
           style="fill:#ffff00" />
        <path
           d="m 44.435759,-38.558705 h 5.693488 v 1.467926 h -3.564293 v 1.092737 h 3.306351 v 1.402268 h -3.306351 v 1.355369 h 3.66747 v 1.557033 h -5.796665 z"
           id="path14829"
           style="fill:#ffff00" />
        <path
           d="m 51.39082,-38.558705 h 1.983811 l 2.588801,3.803475 v -3.803475 h 2.00257 v 6.875333 h -2.00257 L 53.3887,-35.458708 v 3.775336 h -1.99788 z"
           id="path14831"
           style="fill:#ffff00" />
        <path
           d="m 63.514104,-32.818318 h -2.419967 l -0.33298,1.134946 h -2.171404 l 2.584111,-6.875333 h 2.31679 l 2.584112,6.875333 h -2.222992 z m -0.445537,-1.486685 -0.759757,-2.471556 -0.755067,2.471556 z"
           id="path14833"
           style="fill:#ffff00" />
        <path
           d="m 66.768865,-38.558705 h 1.98381 l 2.588801,3.803475 v -3.803475 h 2.00257 v 6.875333 h -2.00257 l -2.574732,-3.775336 v 3.775336 h -1.997879 z"
           id="path14835"
           style="fill:#ffff00" />
        <path
           d="m 79.332997,-34.492598 1.861874,0.562783 q -0.187595,0.783207 -0.590922,1.308471 -0.403328,0.525264 -1.00363,0.792586 -0.595612,0.267322 -1.519514,0.267322 -1.120876,0 -1.833735,-0.3236 -0.708168,-0.32829 -1.224053,-1.149016 -0.515884,-0.820725 -0.515884,-2.101056 0,-1.707109 0.905142,-2.621631 0.909833,-0.919212 2.570043,-0.919212 1.299091,0 2.040088,0.525264 0.745688,0.525264 1.106807,1.613311 l -1.875944,0.417398 q -0.09849,-0.314221 -0.206353,-0.459607 -0.178215,-0.243872 -0.436157,-0.375188 -0.257942,-0.131316 -0.576853,-0.131316 -0.722238,0 -1.106806,0.581542 -0.290772,0.431467 -0.290772,1.355369 0,1.144326 0.34705,1.571103 0.347049,0.422087 0.97549,0.422087 0.609682,0 0.919213,-0.34236 0.31422,-0.342359 0.454916,-0.99425 z"
           id="path14837"
           style="fill:#ffff00" />
        <path
           d="m 82.221945,-38.558705 h 5.693488 v 1.467926 h -3.564292 v 1.092737 h 3.30635 v 1.402268 h -3.30635 v 1.355369 h 3.667469 v 1.557033 h -5.796665 z"
           id="path14839"
           style="fill:#ffff00" />
      </g>
    </g>
    <g
       id="g15071"
       transform="matrix(0.40068214,0,0,0.40068214,568.68148,119.97428)"
       style="fill:#ffff00">
      <g
         aria-label="MAINTENANCE"
         id="g15045"
         style="font-size:10.5833px;line-height:1.25;font-family:Tivan;-inkscape-font-specification:'Tivan, Normal';stroke-width:0.264583;fill:#ffff00">
        <path
           d="m 12.813265,-33.680412 v -5.29165 h -1.586461 v -5.29165 h 3.172923 v 2.118727 h -1.059364 v -1.059363 H 12.281 v 3.17809 h 4.237454 v 2.113559 H 15.45909 v -1.059363 h -1.586461 v 4.237454 h 5.29165 v 1.054196 z"
           id="path15023"
           style="fill:#ffff00" />
        <path
           d="m 21.231329,-33.680412 v -1.054196 h 1.586461 v -9.529104 h 1.059364 v 10.5833 z m 4.232286,0 v -10.5833 h 1.059364 v 8.46974 l 0.527098,-0.532265 h 1.059363 z"
           id="path15025"
           style="fill:#ffff00" />
        <path
           d="m 30.176492,-33.680412 v -10.5833 h 4.232286 v 3.705188 h -1.059363 v -2.645824 h -2.118727 v 3.705188 h 5.291649 v 1.059363 h -5.291649 v 3.705189 h 2.118727 v -2.645825 h 1.059363 v 3.700021 z"
           id="path15027"
           style="fill:#ffff00" />
        <path
           d="m 44.413304,-34.734608 v -3.705189 h -3.172923 v 3.705189 z m -4.232287,1.054196 v -4.759385 h -1.586461 v -1.059363 h 1.586461 v -3.705188 h -1.586461 v -1.059364 h 2.645825 v 4.764552 h 3.172923 v -2.645825 h 3.172922 v 2.118727 h -1.054195 v -1.059363 h -1.059364 v 7.405209 z"
           id="path15029"
           style="fill:#ffff00" />
        <path
           d="m 49.658444,-33.680412 v -10.5833 h 6.345846 v 4.764552 h -1.054196 v -3.705188 h -1.591629 v 3.705188 h -1.054196 v -3.705188 H 50.71264 v 9.523936 z"
           id="path15031"
           style="fill:#ffff00" />
        <path
           d="m 62.308795,-34.734608 v -2.118727 h -3.178091 v 2.118727 z m 0,-3.178091 v -2.113559 h -3.178091 v 2.113559 z m 0,-3.172922 v -2.118727 h -3.178091 v 2.118727 z m -4.232286,7.405209 v -10.5833 h 5.291649 v 10.5833 z"
           id="path15033"
           style="fill:#ffff00" />
        <path
           d="m 71.253956,-34.734608 v -3.705189 h -3.172923 v 3.705189 z m -4.232286,1.054196 v -4.759385 h -1.586462 v -1.059363 h 1.586462 v -3.705188 h -1.586462 v -1.059364 h 2.645825 v 4.764552 h 3.172923 v -2.645825 h 3.172923 v 2.118727 h -1.054196 v -1.059363 H 72.31332 v 7.405209 z"
           id="path15035"
           style="fill:#ffff00" />
        <path
           d="m 76.499097,-33.680412 v -1.054196 h 1.586461 v -9.529104 h 1.059364 v 10.5833 z m 4.232286,0 v -10.5833 h 1.059364 v 8.46974 l 0.527098,-0.532265 h 1.059363 z"
           id="path15037"
           style="fill:#ffff00" />
        <path
           d="m 91.263005,-34.734608 v -3.705189 h -3.172923 v 3.705189 z m -4.232287,1.054196 v -4.759385 h -1.586461 v -1.059363 h 1.586461 v -3.705188 h -1.586461 v -1.059364 h 2.645825 v 4.764552 h 3.172923 v -2.645825 h 3.172922 v 2.118727 h -1.054195 v -1.059363 h -1.059364 v 7.405209 z"
           id="path15039"
           style="fill:#ffff00" />
        <path
           d="m 99.681068,-40.026258 v -1.059363 h -1.059363 z m -2.118727,6.345846 1.322913,-2.645825 h 0.795814 v -2.11356 l -0.527098,-1.059363 -1.059363,-1.059364 -1.059364,-0.527097 h -0.527098 v -1.059364 h 3.172923 v -1.059363 h -1.586461 v -1.059364 h 2.645823 v 8.996838 h -1.322911 l -0.795814,1.586462 z"
           id="path15041"
           style="fill:#ffff00" />
        <path
           d="m 107.03977,-34.734608 v -2.118727 h -3.17809 v 2.118727 z m 0,-3.178091 v -2.113559 h -3.17809 v 2.113559 z m 0,-3.172922 v -2.118727 h -3.17809 v 2.118727 z m -4.23229,7.405209 v -10.5833 h 5.29165 v 10.5833 z"
           id="path15043"
           style="fill:#ffff00" />
      </g>
      <g
         aria-label="MAINTENANCE"
         transform="scale(1.2270539,0.8149601)"
         id="g15069"
         style="font-weight:900;font-size:9.60483px;line-height:1.25;font-family:Arial;-inkscape-font-specification:'Arial, Heavy';stroke-width:0.240122;fill:#ffff00">
        <path
           d="m 9.2055431,-38.558705 h 2.7951559 l 1.078667,4.183354 1.073978,-4.183354 h 2.785775 v 6.875333 h -1.735247 v -5.243262 l -1.345989,5.243262 H 12.28678 l -1.341299,-5.243262 v 5.243262 H 9.2055431 Z"
           id="path15047"
           style="fill:#ffff00" />
        <path
           d="m 22.524741,-32.818318 h -2.419967 l -0.33298,1.134946 H 17.60039 l 2.584112,-6.875333 h 2.31679 l 2.584112,6.875333 h -2.222993 z m -0.445537,-1.486685 -0.759757,-2.471556 -0.755067,2.471556 z"
           id="path15049"
           style="fill:#ffff00" />
        <path
           d="m 25.849852,-38.558705 h 2.129195 v 6.875333 h -2.129195 z"
           id="path15051"
           style="fill:#ffff00" />
        <path
           d="m 29.51732,-38.558705 h 1.98381 l 2.588801,3.803475 v -3.803475 h 2.00257 v 6.875333 h -2.00257 l -2.574732,-3.775336 v 3.775336 H 29.51732 Z"
           id="path15053"
           style="fill:#ffff00" />
        <path
           d="m 37.021093,-38.558705 h 6.457935 v 1.697729 h -2.166715 v 5.177604 h -2.124505 v -5.177604 h -2.166715 z"
           id="path15055"
           style="fill:#ffff00" />
        <path
           d="m 44.435759,-38.558705 h 5.693488 v 1.467926 h -3.564293 v 1.092737 h 3.306351 v 1.402268 h -3.306351 v 1.355369 h 3.66747 v 1.557033 h -5.796665 z"
           id="path15057"
           style="fill:#ffff00" />
        <path
           d="m 51.39082,-38.558705 h 1.983811 l 2.588801,3.803475 v -3.803475 h 2.00257 v 6.875333 h -2.00257 L 53.3887,-35.458708 v 3.775336 h -1.99788 z"
           id="path15059"
           style="fill:#ffff00" />
        <path
           d="m 63.514104,-32.818318 h -2.419967 l -0.33298,1.134946 h -2.171404 l 2.584111,-6.875333 h 2.31679 l 2.584112,6.875333 h -2.222992 z m -0.445537,-1.486685 -0.759757,-2.471556 -0.755067,2.471556 z"
           id="path15061"
           style="fill:#ffff00" />
        <path
           d="m 66.768865,-38.558705 h 1.98381 l 2.588801,3.803475 v -3.803475 h 2.00257 v 6.875333 h -2.00257 l -2.574732,-3.775336 v 3.775336 h -1.997879 z"
           id="path15063"
           style="fill:#ffff00" />
        <path
           d="m 79.332997,-34.492598 1.861874,0.562783 q -0.187595,0.783207 -0.590922,1.308471 -0.403328,0.525264 -1.00363,0.792586 -0.595612,0.267322 -1.519514,0.267322 -1.120876,0 -1.833735,-0.3236 -0.708168,-0.32829 -1.224053,-1.149016 -0.515884,-0.820725 -0.515884,-2.101056 0,-1.707109 0.905142,-2.621631 0.909833,-0.919212 2.570043,-0.919212 1.299091,0 2.040088,0.525264 0.745688,0.525264 1.106807,1.613311 l -1.875944,0.417398 q -0.09849,-0.314221 -0.206353,-0.459607 -0.178215,-0.243872 -0.436157,-0.375188 -0.257942,-0.131316 -0.576853,-0.131316 -0.722238,0 -1.106806,0.581542 -0.290772,0.431467 -0.290772,1.355369 0,1.144326 0.34705,1.571103 0.347049,0.422087 0.97549,0.422087 0.609682,0 0.919213,-0.34236 0.31422,-0.342359 0.454916,-0.99425 z"
           id="path15065"
           style="fill:#ffff00" />
        <path
           d="m 82.221945,-38.558705 h 5.693488 v 1.467926 h -3.564292 v 1.092737 h 3.30635 v 1.402268 h -3.30635 v 1.355369 h 3.667469 v 1.557033 h -5.796665 z"
           id="path15067"
           style="fill:#ffff00" />
      </g>
    </g>
    <g
       id="g15121"
       transform="matrix(-0.40068214,0,0,-0.40068214,123.22067,30.734183)"
       style="fill:#ffff00">
      <g
         aria-label="MAINTENANCE"
         id="g15095"
         style="font-size:10.5833px;line-height:1.25;font-family:Tivan;-inkscape-font-specification:'Tivan, Normal';stroke-width:0.264583;fill:#ffff00">
        <path
           d="m 12.813265,-33.680412 v -5.29165 h -1.586461 v -5.29165 h 3.172923 v 2.118727 h -1.059364 v -1.059363 H 12.281 v 3.17809 h 4.237454 v 2.113559 H 15.45909 v -1.059363 h -1.586461 v 4.237454 h 5.29165 v 1.054196 z"
           id="path15073"
           style="fill:#ffff00" />
        <path
           d="m 21.231329,-33.680412 v -1.054196 h 1.586461 v -9.529104 h 1.059364 v 10.5833 z m 4.232286,0 v -10.5833 h 1.059364 v 8.46974 l 0.527098,-0.532265 h 1.059363 z"
           id="path15075"
           style="fill:#ffff00" />
        <path
           d="m 30.176492,-33.680412 v -10.5833 h 4.232286 v 3.705188 h -1.059363 v -2.645824 h -2.118727 v 3.705188 h 5.291649 v 1.059363 h -5.291649 v 3.705189 h 2.118727 v -2.645825 h 1.059363 v 3.700021 z"
           id="path15077"
           style="fill:#ffff00" />
        <path
           d="m 44.413304,-34.734608 v -3.705189 h -3.172923 v 3.705189 z m -4.232287,1.054196 v -4.759385 h -1.586461 v -1.059363 h 1.586461 v -3.705188 h -1.586461 v -1.059364 h 2.645825 v 4.764552 h 3.172923 v -2.645825 h 3.172922 v 2.118727 h -1.054195 v -1.059363 h -1.059364 v 7.405209 z"
           id="path15079"
           style="fill:#ffff00" />
        <path
           d="m 49.658444,-33.680412 v -10.5833 h 6.345846 v 4.764552 h -1.054196 v -3.705188 h -1.591629 v 3.705188 h -1.054196 v -3.705188 H 50.71264 v 9.523936 z"
           id="path15081"
           style="fill:#ffff00" />
        <path
           d="m 62.308795,-34.734608 v -2.118727 h -3.178091 v 2.118727 z m 0,-3.178091 v -2.113559 h -3.178091 v 2.113559 z m 0,-3.172922 v -2.118727 h -3.178091 v 2.118727 z m -4.232286,7.405209 v -10.5833 h 5.291649 v 10.5833 z"
           id="path15083"
           style="fill:#ffff00" />
        <path
           d="m 71.253956,-34.734608 v -3.705189 h -3.172923 v 3.705189 z m -4.232286,1.054196 v -4.759385 h -1.586462 v -1.059363 h 1.586462 v -3.705188 h -1.586462 v -1.059364 h 2.645825 v 4.764552 h 3.172923 v -2.645825 h 3.172923 v 2.118727 h -1.054196 v -1.059363 H 72.31332 v 7.405209 z"
           id="path15085"
           style="fill:#ffff00" />
        <path
           d="m 76.499097,-33.680412 v -1.054196 h 1.586461 v -9.529104 h 1.059364 v 10.5833 z m 4.232286,0 v -10.5833 h 1.059364 v 8.46974 l 0.527098,-0.532265 h 1.059363 z"
           id="path15087"
           style="fill:#ffff00" />
        <path
           d="m 91.263005,-34.734608 v -3.705189 h -3.172923 v 3.705189 z m -4.232287,1.054196 v -4.759385 h -1.586461 v -1.059363 h 1.586461 v -3.705188 h -1.586461 v -1.059364 h 2.645825 v 4.764552 h 3.172923 v -2.645825 h 3.172922 v 2.118727 h -1.054195 v -1.059363 h -1.059364 v 7.405209 z"
           id="path15089"
           style="fill:#ffff00" />
        <path
           d="m 99.681068,-40.026258 v -1.059363 h -1.059363 z m -2.118727,6.345846 1.322913,-2.645825 h 0.795814 v -2.11356 l -0.527098,-1.059363 -1.059363,-1.059364 -1.059364,-0.527097 h -0.527098 v -1.059364 h 3.172923 v -1.059363 h -1.586461 v -1.059364 h 2.645823 v 8.996838 h -1.322911 l -0.795814,1.586462 z"
           id="path15091"
           style="fill:#ffff00" />
        <path
           d="m 107.03977,-34.734608 v -2.118727 h -3.17809 v 2.118727 z m 0,-3.178091 v -2.113559 h -3.17809 v 2.113559 z m 0,-3.172922 v -2.118727 h -3.17809 v 2.118727 z m -4.23229,7.405209 v -10.5833 h 5.29165 v 10.5833 z"
           id="path15093"
           style="fill:#ffff00" />
      </g>
      <g
         aria-label="MAINTENANCE"
         transform="scale(1.2270539,0.8149601)"
         id="g15119"
         style="font-weight:900;font-size:9.60483px;line-height:1.25;font-family:Arial;-inkscape-font-specification:'Arial, Heavy';stroke-width:0.240122;fill:#ffff00">
        <path
           d="m 9.2055431,-38.558705 h 2.7951559 l 1.078667,4.183354 1.073978,-4.183354 h 2.785775 v 6.875333 h -1.735247 v -5.243262 l -1.345989,5.243262 H 12.28678 l -1.341299,-5.243262 v 5.243262 H 9.2055431 Z"
           id="path15097"
           style="fill:#ffff00" />
        <path
           d="m 22.524741,-32.818318 h -2.419967 l -0.33298,1.134946 H 17.60039 l 2.584112,-6.875333 h 2.31679 l 2.584112,6.875333 h -2.222993 z m -0.445537,-1.486685 -0.759757,-2.471556 -0.755067,2.471556 z"
           id="path15099"
           style="fill:#ffff00" />
        <path
           d="m 25.849852,-38.558705 h 2.129195 v 6.875333 h -2.129195 z"
           id="path15101"
           style="fill:#ffff00" />
        <path
           d="m 29.51732,-38.558705 h 1.98381 l 2.588801,3.803475 v -3.803475 h 2.00257 v 6.875333 h -2.00257 l -2.574732,-3.775336 v 3.775336 H 29.51732 Z"
           id="path15103"
           style="fill:#ffff00" />
        <path
           d="m 37.021093,-38.558705 h 6.457935 v 1.697729 h -2.166715 v 5.177604 h -2.124505 v -5.177604 h -2.166715 z"
           id="path15105"
           style="fill:#ffff00" />
        <path
           d="m 44.435759,-38.558705 h 5.693488 v 1.467926 h -3.564293 v 1.092737 h 3.306351 v 1.402268 h -3.306351 v 1.355369 h 3.66747 v 1.557033 h -5.796665 z"
           id="path15107"
           style="fill:#ffff00" />
        <path
           d="m 51.39082,-38.558705 h 1.983811 l 2.588801,3.803475 v -3.803475 h 2.00257 v 6.875333 h -2.00257 L 53.3887,-35.458708 v 3.775336 h -1.99788 z"
           id="path15109"
           style="fill:#ffff00" />
        <path
           d="m 63.514104,-32.818318 h -2.419967 l -0.33298,1.134946 h -2.171404 l 2.584111,-6.875333 h 2.31679 l 2.584112,6.875333 h -2.222992 z m -0.445537,-1.486685 -0.759757,-2.471556 -0.755067,2.471556 z"
           id="path15111"
           style="fill:#ffff00" />
        <path
           d="m 66.768865,-38.558705 h 1.98381 l 2.588801,3.803475 v -3.803475 h 2.00257 v 6.875333 h -2.00257 l -2.574732,-3.775336 v 3.775336 h -1.997879 z"
           id="path15113"
           style="fill:#ffff00" />
        <path
           d="m 79.332997,-34.492598 1.861874,0.562783 q -0.187595,0.783207 -0.590922,1.308471 -0.403328,0.525264 -1.00363,0.792586 -0.595612,0.267322 -1.519514,0.267322 -1.120876,0 -1.833735,-0.3236 -0.708168,-0.32829 -1.224053,-1.149016 -0.515884,-0.820725 -0.515884,-2.101056 0,-1.707109 0.905142,-2.621631 0.909833,-0.919212 2.570043,-0.919212 1.299091,0 2.040088,0.525264 0.745688,0.525264 1.106807,1.613311 l -1.875944,0.417398 q -0.09849,-0.314221 -0.206353,-0.459607 -0.178215,-0.243872 -0.436157,-0.375188 -0.257942,-0.131316 -0.576853,-0.131316 -0.722238,0 -1.106806,0.581542 -0.290772,0.431467 -0.290772,1.355369 0,1.144326 0.34705,1.571103 0.347049,0.422087 0.97549,0.422087 0.609682,0 0.919213,-0.34236 0.31422,-0.342359 0.454916,-0.99425 z"
           id="path15115"
           style="fill:#ffff00" />
        <path
           d="m 82.221945,-38.558705 h 5.693488 v 1.467926 h -3.564292 v 1.092737 h 3.30635 v 1.402268 h -3.30635 v 1.355369 h 3.667469 v 1.557033 h -5.796665 z"
           id="path15117"
           style="fill:#ffff00" />
      </g>
    </g>
    <text
       xml:space="preserve"
       style="font-style:normal;font-weight:normal;font-size:10.5833px;line-height:1.25;font-family:sans-serif;fill:#000000;fill-opacity:1;stroke:none;stroke-width:0.264583"
       x="121.96392"
       y="241.54639"
       id="text21510"><tspan
         sodipodi:role="line"
         id="tspan21508"
         style="font-style:normal;font-variant:normal;font-weight:900;font-stretch:normal;font-size:10.5833px;font-family:Arial;-inkscape-font-specification:'Arial, Heavy';font-variant-ligatures:normal;font-variant-caps:normal;font-variant-numeric:normal;font-variant-east-asian:normal;fill:#ffff00;stroke-width:0.264583"
         x="121.96392"
         y="241.54639">2</tspan></text>
    <text
       xml:space="preserve"
       style="font-style:normal;font-weight:normal;font-size:10.5833px;line-height:1.25;font-family:sans-serif;fill:#000000;fill-opacity:1;stroke:none;stroke-width:0.264583"
       x="-77.169891"
       y="-41.284756"
       id="text38268"
       transform="scale(-1)"><tspan
         sodipodi:role="line"
         id="tspan38266"
         style="font-style:normal;font-variant:normal;font-weight:900;font-stretch:normal;font-size:10.5833px;font-family:Arial;-inkscape-font-specification:'Arial, Heavy';font-variant-ligatures:normal;font-variant-caps:normal;font-variant-numeric:normal;font-variant-east-asian:normal;fill:#ffff00;stroke-width:0.264583"
         x="-77.169891"
         y="-41.284756">1</tspan></text>
    <text
       xml:space="preserve"
       style="font-style:normal;font-weight:normal;font-size:10.5833px;line-height:1.25;font-family:sans-serif;fill:#000000;fill-opacity:1;stroke:none;stroke-width:0.264583"
       x="614.92267"
       y="109.71648"
       id="text40378"><tspan
         sodipodi:role="line"
         id="tspan40376"
         style="font-style:normal;font-variant:normal;font-weight:900;font-stretch:normal;font-size:10.5833px;font-family:Arial;-inkscape-font-specification:'Arial, Heavy';font-variant-ligatures:normal;font-variant-caps:normal;font-variant-numeric:normal;font-variant-east-asian:normal;fill:#ffff00;stroke-width:0.264583"
         x="614.92267"
         y="109.71648">3</tspan></text>
    <text
       xml:space="preserve"
       style="font-style:normal;font-weight:normal;font-size:10.5833px;line-height:1.25;font-family:sans-serif;fill:#00a726;fill-opacity:1;stroke:none;stroke-width:0.264583"
       x="-159.08372"
       y="317.37079"
       id="text43910"
       transform="rotate(-90)"><tspan
         sodipodi:role="line"
         id="tspan43908"
         style="font-style:normal;font-variant:normal;font-weight:900;font-stretch:normal;font-size:10.5833px;font-family:Arial;-inkscape-font-specification:'Arial, Heavy';font-variant-ligatures:normal;font-variant-caps:normal;font-variant-numeric:normal;font-variant-east-asian:normal;fill:#00a726;fill-opacity:1;stroke-width:0.264583"
         x="-159.08372"
         y="317.37079">MAIN</tspan></text>
    <text
       xml:space="preserve"
       style="font-style:normal;font-weight:normal;font-size:6.22005px;line-height:1.25;font-family:sans-serif;fill:#00a726;fill-opacity:1;stroke:none;stroke-width:0.155502"
       x="160.42995"
       y="-557.57983"
       id="text51227"
       transform="rotate(90)"><tspan
         sodipodi:role="line"
         id="tspan51225"
         style="font-style:normal;font-variant:normal;font-weight:900;font-stretch:normal;font-size:6.22005px;font-family:Arial;-inkscape-font-specification:'Arial, Heavy';font-variant-ligatures:normal;font-variant-caps:normal;font-variant-numeric:normal;font-variant-east-asian:normal;fill:#00a726;fill-opacity:1;stroke-width:0.155502"
         x="160.42995"
         y="-557.57983">SHUTTLE</tspan></text>
    <rect
       style="fill:#00a726;fill-opacity:1;fill-rule:evenodd;stroke:#000000;stroke-width:0;stroke-linecap:square;stroke-linejoin:round;paint-order:stroke markers fill"
       id="rect58419"
       width="30.791948"
       height="4.0895553"
       x="172.24246"
       y="36.084316" />
    <rect
       style="fill:#00a726;fill-opacity:1;fill-rule:evenodd;stroke:#000000;stroke-width:0;stroke-linecap:square;stroke-linejoin:round;paint-order:stroke markers fill"
       id="rect58501"
       width="30.791948"
       height="4.0895553"
       x="172.24246"
       y="241.92868" />
    <rect
       style="fill:#00a726;fill-opacity:1;fill-rule:evenodd;stroke:#000000;stroke-width:0;stroke-linecap:square;stroke-linejoin:round;paint-order:stroke markers fill"
       id="rect58503"
       width="30.791948"
       height="4.0895553"
       x="-583.62708"
       y="-244.75821"
       transform="scale(-1)" />
    <rect
       style="fill:#ffff00;fill-opacity:1;fill-rule:evenodd;stroke:#000000;stroke-width:0;stroke-linecap:square;stroke-linejoin:round;paint-order:stroke markers fill"
       id="rect58505"
       width="30.791948"
       height="4.0895553"
       x="-583.62708"
       y="-41.512207"
       transform="scale(-1)" />
    <rect
       style="fill:#ffff00;fill-opacity:1;fill-rule:evenodd;stroke:#000000;stroke-width:0;stroke-linecap:square;stroke-linejoin:round;paint-order:stroke markers fill"
       id="rect58525"
       width="30.791948"
       height="4.0895553"
       x="-69.803352"
       y="-40.453873"
       transform="scale(-1)" />
    <rect
       style="fill:#ffff00;fill-opacity:1;fill-rule:evenodd;stroke:#000000;stroke-width:0;stroke-linecap:square;stroke-linejoin:round;paint-order:stroke markers fill"
       id="rect58527"
       width="30.791948"
       height="4.0895553"
       x="-69.803352"
       y="-245.76901"
       transform="scale(-1)" />
  </g>
</svg>
